<svg width="24" height="24" fill="none" xmlns="http://www.w3.org/2000/svg"><g filter="url(#a)"><path d="M9.172 18.657a1 1 0 0 1-.707-.293l-5.657-5.657a1 1 0 0 1 1.414-1.414l4.95 4.95L19.778 5.636a1 1 0 0 1 1.414 1.414L9.88 18.364a1 1 0 0 1-.707.293Z" fill="#fff"/><path d="m2.7 12.811.002.002 5.657 5.657a1.15 1.15 0 0 0 1.626 0L21.298 7.156l.002-.002a1.15 1.15 0 0 0-1.626-1.626l-.002.002-10.5 10.5-4.844-4.843-.002-.002A1.15 1.15 0 0 0 2.7 12.811Z" stroke="#fff" stroke-width=".3"/></g><defs><filter id="a" x=".227" y="4.055" width="23.545" height="17.902" filterUnits="userSpaceOnUse" color-interpolation-filters="sRGB"><feFlood flood-opacity="0" result="BackgroundImageFix"/><feColorMatrix in="SourceAlpha" values="0 0 0 0 0 0 0 0 0 0 0 0 0 0 0 0 0 0 127 0" result="hardAlpha"/><feOffset dy="1"/><feGaussianBlur stdDeviation="1"/><feComposite in2="hardAlpha" operator="out"/><feColorMatrix values="0 0 0 0 0 0 0 0 0 0 0 0 0 0 0 0 0 0 0.25 0"/><feBlend in2="BackgroundImageFix" result="effect1_dropShadow_8_26359"/><feBlend in="SourceGraphic" in2="effect1_dropShadow_8_26359" result="shape"/></filter></defs></svg>